<svg width="512" height="512" viewBox="0 0 512 512" fill="none" xmlns="http://www.w3.org/2000/svg">
<path fill-rule="evenodd" clip-rule="evenodd" d="M409.108 342.36C448.183 320.136 470.964 290.232 470.964 258.336C470.964 226.441 448.183 196.536 409.108 174.312C370.184 152.174 316.063 138.317 256 138.317C195.937 138.317 141.817 152.174 102.892 174.312C63.8168 196.536 41.0365 226.441 41.0365 258.336C41.0365 290.232 63.8168 320.136 102.892 342.36C141.817 364.498 195.937 378.356 256 378.356C316.063 378.356 370.184 364.498 409.108 342.36ZM256 383.552C377.591 383.552 476.16 327.491 476.16 258.336C476.16 189.181 377.591 133.12 256 133.12C134.409 133.12 35.8401 189.181 35.8401 258.336C35.8401 327.491 134.409 383.552 256 383.552Z" fill="white"/>
<path fill-rule="evenodd" clip-rule="evenodd" d="M250.496 378.356C324.093 378.356 382.9 324.171 382.9 258.336C382.9 192.501 324.093 138.317 250.496 138.317C176.9 138.317 118.093 192.501 118.093 258.336C118.093 324.171 176.9 378.356 250.496 378.356ZM250.496 383.552C326.491 383.552 388.096 327.491 388.096 258.336C388.096 189.181 326.491 133.12 250.496 133.12C174.502 133.12 112.896 189.181 112.896 258.336C112.896 327.491 174.502 383.552 250.496 383.552Z" fill="white"/>
<path fill-rule="evenodd" clip-rule="evenodd" d="M284.658 344.786C294.266 322.928 300.34 292.367 300.34 258.336C300.34 224.305 294.266 193.744 284.658 171.886C279.851 160.95 274.261 152.424 268.317 146.705C262.399 141.01 256.385 138.317 250.496 138.317C244.608 138.317 238.594 141.01 232.675 146.705C226.731 152.424 221.142 160.95 216.334 171.886C206.726 193.744 200.653 224.305 200.653 258.336C200.653 292.367 206.726 322.928 216.334 344.786C221.142 355.723 226.731 364.248 232.675 369.968C238.594 375.662 244.608 378.356 250.496 378.356C256.385 378.356 262.399 375.662 268.317 369.968C274.261 364.248 279.851 355.723 284.658 344.786ZM250.496 383.552C280.894 383.552 305.536 327.491 305.536 258.336C305.536 189.181 280.894 133.12 250.496 133.12C220.099 133.12 195.456 189.181 195.456 258.336C195.456 327.491 220.099 383.552 250.496 383.552Z" fill="white"/>
<path d="M84.6882 220.926C84.6882 220.109 84.5691 219.479 84.3308 219.037C84.1265 218.594 83.7691 218.271 83.2585 218.066C82.7478 217.862 82.067 217.743 81.216 217.709C80.399 217.675 79.3777 217.658 78.1522 217.658V296.09C79.3777 296.09 80.399 296.073 81.216 296.039C82.067 296.005 82.7478 295.886 83.2585 295.681C83.7691 295.477 84.1265 295.154 84.3308 294.711C84.5691 294.269 84.6882 293.639 84.6882 292.822V220.926ZM91.2242 292.822C91.2242 294.864 90.8498 296.447 90.1008 297.571C89.3519 298.66 88.3647 299.46 87.1392 299.971C85.9137 300.481 84.518 300.788 82.9521 300.89C81.3862 300.958 79.7862 300.992 78.1522 300.992H71.6162V212.756H78.1522C79.7862 212.756 81.3862 212.807 82.9521 212.909C84.518 212.977 85.9137 213.266 87.1392 213.777C88.3647 214.288 89.3519 215.105 90.1008 216.228C90.8498 217.317 91.2242 218.883 91.2242 220.926V292.822Z" fill="white"/>
<path d="M160.712 217.658H168.882V212.756H154.176V300.992H160.712V255.24V250.338V217.658Z" fill="white"/>
<path d="M252.56 220.926C252.56 220.109 252.441 219.479 252.202 219.037C251.998 218.594 251.641 218.271 251.13 218.066C250.619 217.862 249.939 217.743 249.088 217.709C248.271 217.675 247.249 217.658 246.024 217.658V296.09C247.249 296.09 248.271 296.073 249.088 296.039C249.939 296.005 250.619 295.886 251.13 295.681C251.641 295.477 251.998 295.154 252.202 294.711C252.441 294.269 252.56 293.639 252.56 292.822V220.926ZM259.096 292.822C259.096 294.864 258.721 296.447 257.972 297.571C257.223 298.66 256.236 299.46 255.011 299.971C253.785 300.481 252.39 300.788 250.824 300.89C249.258 300.958 247.658 300.992 246.024 300.992H239.488V212.756H246.024C247.658 212.756 249.258 212.807 250.824 212.909C252.39 212.977 253.785 213.266 255.011 213.777C256.236 214.288 257.223 215.105 257.972 216.228C258.721 217.317 259.096 218.883 259.096 220.926V292.822Z" fill="white"/>
<path d="M346.128 300.992H352.664L347.762 212.756H337.958L333.056 300.992H339.592L341.226 255.24L342.86 216.024L344.494 255.24L346.128 300.992Z" fill="white"/>
<path d="M437.976 292.822C437.976 293.23 437.925 293.979 437.822 295.069C437.72 296.124 437.363 297.213 436.75 298.337C436.137 299.46 435.167 300.447 433.84 301.298C432.512 302.183 430.623 302.626 428.172 302.626C425.721 302.626 423.831 302.183 422.504 301.298C421.176 300.447 420.206 299.46 419.593 298.337C418.98 297.213 418.623 296.124 418.521 295.069C418.419 293.979 418.368 293.23 418.368 292.822V220.926C418.368 220.654 418.385 220.245 418.419 219.7C418.453 219.156 418.555 218.56 418.725 217.913C418.895 217.232 419.185 216.552 419.593 215.871C420.002 215.156 420.563 214.509 421.278 213.93C421.993 213.352 422.912 212.892 424.036 212.552C425.159 212.177 426.538 211.99 428.172 211.99C429.806 211.99 431.184 212.177 432.308 212.552C433.431 212.892 434.35 213.352 435.065 213.93C435.78 214.509 436.342 215.156 436.75 215.871C437.159 216.552 437.448 217.232 437.618 217.913C437.788 218.56 437.891 219.156 437.925 219.7C437.959 220.245 437.976 220.654 437.976 220.926V292.822ZM424.904 292.822C424.904 293.23 424.921 293.724 424.955 294.303C424.989 294.847 425.108 295.375 425.312 295.886C425.516 296.396 425.84 296.839 426.282 297.213C426.725 297.554 427.355 297.724 428.172 297.724C428.989 297.724 429.618 297.554 430.061 297.213C430.504 296.839 430.827 296.396 431.031 295.886C431.235 295.375 431.355 294.847 431.389 294.303C431.423 293.724 431.44 293.23 431.44 292.822V220.926C431.44 220.517 431.423 220.075 431.389 219.598C431.355 219.122 431.235 218.696 431.031 218.322C430.827 217.913 430.504 217.573 430.061 217.3C429.618 217.028 428.989 216.892 428.172 216.892C427.355 216.892 426.725 217.028 426.282 217.3C425.84 217.573 425.516 217.913 425.312 218.322C425.108 218.696 424.989 219.122 424.955 219.598C424.921 220.075 424.904 220.517 424.904 220.926V292.822Z" fill="white"/>
<path fill-rule="evenodd" clip-rule="evenodd" d="M242.24 259.712L85.3762 259.712L85.3762 252.096L242.24 252.096L242.24 259.712Z" fill="white"/>
<path fill-rule="evenodd" clip-rule="evenodd" d="M418.368 259.712L258.752 259.712L258.752 252.096L418.368 252.096L418.368 259.712Z" fill="white"/>
<path fill-rule="evenodd" clip-rule="evenodd" d="M476.161 259.712L437.633 259.712L437.633 252.096L476.161 252.096L476.161 259.712Z" fill="white"/>
<path fill-rule="evenodd" clip-rule="evenodd" d="M77.1193 259.712L38.5913 259.712L38.5913 252.096L77.1193 252.096L77.1193 259.712Z" fill="white"/>
</svg>
